<?xml version="1.0" encoding="utf-8"?>
<?xml-stylesheet type="text/xsl" href="rss1.xsl"?>
<rss version="2.0" xmlns:atom="http://www.w3.org/2005/Atom" xmlns:content="http://purl.org/rss/1.0/modules/content/" xmlns:dc="http://purl.org/dc/elements/1.1/" xmlns:media="http://search.yahoo.com/mrss/">
<channel>
 <title>Getty</title>
 <link>http://www.gettyimg.com/</link>
 <atom:link href="http://www.gettyimg.com/" rel="self" type="application/rss+xml" />

 
                <item>
                <title><![CDATA[【Requests】[REQ VID] - BLACKPINK - Light Up The Sky (2020) 4K highest bitrate]]></title>
                <link><![CDATA[https://sharemania.us/threads/blackpink-light-up-the-sky-2020-4k-highest-bitrate.236365/]]></link>
                <description><![CDATA[<article>
<blockquote class="messageText SelectQuoteContainer ugc baseHtml">
I spent so long trying to find this movie in the highest quality, but I can’t seem to find it. There was a post by someone that uploaded this movie but the link is down and it’s webrip which is recorded and not ripped. Does anybody have this movie in the highest quality &amp; bitrate rip? Thank you
<div class="messageTextEndMarker">&nbsp;</div>
</blockquote>
</article>]]></description>
                <author><![CDATA[stargamer]]></author>
                </item>

                
                <item>
                <title><![CDATA[【HD Live Performances】WEB-DL - Tate McRae - exes - The Tonight Show Starring Jimmy Fallon [Dec-12-2023] PCOK 1080p WEB-DL DD+ 5.1 H.264-EDITH]]></title>
                <link><![CDATA[https://sharemania.us/threads/tate-mcrae-exes-the-tonight-show-starring-jimmy-fallon-dec-12-2023-pcok-1080p-web-dl-dd-5-1-h-264-edith.236363/]]></link>
                <description><![CDATA[<article>
<blockquote class="messageText SelectQuoteContainer ugc baseHtml">
<div style="text-align: center"><b><span style="color: #ff0000">Tate McRae - exes - The Tonight Show Starring Jimmy Fallon [Dec-12-2023] PCOK 1080p WEB-DL DD+ 5.1 H.264-EDITH</span></b><br>
<br>
<img src="https://images2.imgbox.com/c3/a9/OaIGf6DB_o.jpg" class="bbCodeImage LbImage" alt="[​IMG]" data-url="https://images2.imgbox.com/c3/a9/OaIGf6DB_o.jpg" style=""> <br>
<div style="text-align: center">​</div>
<div class="ToggleTriggerAnchor bbCodeSpoilerContainer">
<button type="button" class="button bbCodeSpoilerButton ToggleTrigger Tooltip JsOnly" data-target="> .SpoilerTarget"><span>Spoiler: <span class="SpoilerTitle">MediaInfo</span></span></button>
<div class="SpoilerTarget bbCodeSpoilerText">Format : Matroska<br>
Format version : Version 4<br>
File size : 248 MiB<br>
Duration : 4 min 10 s<br>
Overall bit rate : 8 314 kb/s<br>
Writing application : VideoReDo (Lavf58.29.100)<br>
Writing library : VideoReDo (Lavf58.29.100)<br>
ErrorDetectionType : Per level 1<br>
<br>
Video<br>
ID : 1<br>
Format : AVC<br>
Format/Info : Advanced Video Codec<br>
Format profile : High@L4<br>
Format settings : CABAC / 3 Ref Frames<br>
Format settings, CABAC : Yes<br>
Format settings, Reference : 3 frames<br>
Format settings, GOP : M=3, N=60<br>
Codec ID : V_MPEG4/ISO/AVC<br>
Duration : 4 min 9 s<br>
Bit rate : 7 957 kb/s<br>
Nominal bit rate : 14.5 Mb/s<br>
Width : 1 920 pixels<br>
Height : 1 080 pixels<br>
Display aspect ratio : 16:9<br>
Frame rate mode : Constant<br>
Frame rate : 29.970 (30000/1001) FPS<br>
Color space : YUV<br>
Chroma subsampling : 4:2:0<br>
Bit depth : 8 bits<br>
Scan type : Progressive<br>
Bits/(Pixel*Frame) : 0.128<br>
Stream size : 237 MiB (96%)<br>
Writing library : x264 core 160 r3000<br>
Encoding settings : cabac=1 / ref=3 / deblock=1:0:0 / analyse=0x3:0x113 / me=hex / subme=4 / psy=1 / psy_rd=1.00:0.00 / mixed_ref=0 / me_range=16 / chroma_me=1 / trellis=1 / 8x8dct=1 / cqm=0 / deadzone=21,11 / fast_pskip=1 / chroma_qp_offset=0 / threads=16 / lookahead_threads=4 / sliced_threads=0 / nr=0 / decimate=1 / interlaced=0 / bluray_compat=0 / constrained_intra=0 / bframes=0 / weightp=1 / keyint=60 / keyint_min=6 / scenecut=0 / intra_refresh=0 / rc_lookahead=20 / rc=abr / mbtree=1 / bitrate=14468 / ratetol=1.0 / qcomp=0.60 / qpmin=0 / qpmax=69 / qpstep=4 / vbv_maxrate=24999 / vbv_bufsize=4688 / nal_hrd=none / filler=0 / ip_ratio=1.40 / aq=1:1.00<br>
Default : No<br>
Forced : No<br>
Color range : Limited<br>
Color primaries : BT.709<br>
Transfer characteristics : BT.709<br>
Matrix coefficients : BT.709<br>
<br>
Audio<br>
ID : 2<br>
Format : E-AC-3<br>
Format/Info : Enhanced AC-3<br>
Commercial name : Dolby Digital Plus<br>
Codec ID : A_EAC3<br>
Duration : 4 min 9 s<br>
Bit rate mode : Constant<br>
Bit rate : 192 kb/s<br>
Channel(s) : 6 channels<br>
ChannelLayout_Original : L R C LFE Ls Rs<br>
Sampling rate : 48.0 kHz<br>
Frame rate : 31.250 FPS (1536 SPF)<br>
Compression mode : Lossy<br>
Stream size : 5.72 MiB (2%)<br>
Language : English<br>
Service kind : Complete Main<br>
Default : Yes<br>
Forced : No<br>
<br>
Menu<br>
00:00:00.000 : :Chapter 1</div>
</div><div style="text-align: center"><br>
<div class="bbCodeBlock bbCodeVfcHH HiddenContent">
<div class="attribution type">Hidden Content:</div>
<blockquote>You must either reply or click 'Like' to see the hidden information contained here.</blockquote>
</div><div style="text-align: center"><br>
​</div></div></div>
<div class="messageTextEndMarker">&nbsp;</div>
</blockquote>
</article>]]></description>
                <author><![CDATA[melodie]]></author>
                </item>

                
                <item>
                <title><![CDATA[【Requests】[REQ AUD] - SilHungMo (小紅帽) Tidal Albums]]></title>
                <link><![CDATA[https://sharemania.us/threads/silhungmo-%E5%B0%8F%E7%B4%85%E5%B8%BD-tidal-albums.236364/]]></link>
                <description><![CDATA[<article>
<blockquote class="messageText SelectQuoteContainer ugc baseHtml">
Thank you very much!
<div class="messageTextEndMarker">&nbsp;</div>
</blockquote>
</article>]]></description>
                <author><![CDATA[junjun]]></author>
                </item>

                
                <item>
                <title><![CDATA[【Off-Topic】Why is this here?]]></title>
                <link><![CDATA[https://sharemania.us/threads/why-is-this-here.236362/]]></link>
                <description><![CDATA[<article>
<blockquote class="messageText SelectQuoteContainer ugc baseHtml">
Hello, would it be possible for someone to share some of SilHungMo's albums? I couldn't appreciate it enough.<br>
<br>
<a href="https://tidal.com/browse/album/145170724" target="_blank" class="externalLink" rel="nofollow">https://tidal.com/browse/album/145170724</a><br>
<br>
<a href="https://tidal.com/browse/album/231975237" target="_blank" class="externalLink" rel="nofollow">https://tidal.com/browse/album/231975237</a><br>
<br>
<a href="https://tidal.com/browse/album/231967333" target="_blank" class="externalLink" rel="nofollow">https://tidal.com/browse/album/231967333</a><br>
<br>
Many thanks in advance, have a good day!
<div class="messageTextEndMarker">&nbsp;</div>
</blockquote>
</article>]]></description>
                <author><![CDATA[taytayswift133]]></author>
                </item>

                </channel></rss>